<?xml version="1.0" standalone="no"?>
<!DOCTYPE svg PUBLIC "-//W3C//DTD SVG 20010904//EN"
 "http://www.w3.org/TR/2001/REC-SVG-20010904/DTD/svg10.dtd">
<svg version="1.0" xmlns="http://www.w3.org/2000/svg"
 width="1280.000000pt" height="657.000000pt" viewBox="0 0 1280.000000 657.000000"
 preserveAspectRatio="xMidYMid meet">

<g transform="translate(0.000000,657.000000) scale(0.100000,-0.100000)"
fill="#000000" stroke="none">
<path d="M4550 6554 c-214 -26 -450 -80 -586 -133 l-81 -33 -63 41 c-122 79
-144 81 -930 81 -745 0 -770 -2 -861 -60 l-48 -31 -69 20 c-157 47 -240 52
-786 49 -504 -3 -512 -3 -567 -26 -104 -42 -187 -134 -214 -238 -28 -108 -16
-273 26 -356 29 -56 113 -136 173 -164 46 -21 57 -31 74 -72 18 -42 150 -393
253 -672 21 -58 56 -152 77 -210 172 -461 252 -679 252 -683 0 -2 -29 -23 -64
-45 -172 -112 -289 -271 -342 -463 -25 -91 -25 -320 0 -404 28 -96 90 -215
150 -287 112 -135 239 -216 454 -287 356 -119 703 -107 986 35 213 107 407
298 516 507 23 42 43 77 45 77 11 0 52 -101 170 -420 121 -330 243 -658 381
-1026 35 -94 64 -173 64 -176 0 -3 -28 -24 -62 -45 -232 -147 -368 -393 -368
-662 1 -222 71 -392 230 -551 96 -96 170 -143 317 -200 181 -71 317 -101 488
-107 247 -9 396 21 587 119 239 122 418 311 544 573 61 128 205 452 299 672
26 62 50 113 54 112 3 0 33 -37 67 -82 171 -231 460 -369 804 -384 225 -9 405
35 576 143 47 30 89 54 91 54 3 0 34 -18 68 -39 90 -57 187 -99 294 -127 82
-21 114 -24 275 -24 245 0 343 21 521 111 l96 48 62 -39 c111 -70 123 -71 679
-68 442 3 498 5 537 21 43 17 47 17 95 0 46 -16 99 -18 561 -18 471 0 514 1
558 18 46 18 48 18 95 0 43 -17 87 -18 567 -18 l520 0 76 36 c123 59 207 151
249 273 19 58 20 82 20 956 0 975 0 978 -56 1127 -33 88 -70 152 -136 234
-192 239 -492 362 -843 346 -189 -9 -336 -47 -497 -128 l-57 -29 -73 39 c-169
91 -262 113 -503 116 l-190 3 -6 874 c-4 653 -8 884 -18 918 -51 187 -117 305
-235 423 -170 170 -403 264 -681 274 -217 8 -405 -31 -584 -121 l-70 -36 -83
44 c-170 90 -327 122 -557 113 -192 -7 -324 -41 -488 -126 l-114 -59 -77 38
c-42 22 -118 51 -167 65 l-91 26 -504 -3 c-492 -3 -506 -4 -551 -24 -58 -27
-120 -82 -155 -139 l-28 -42 -65 45 c-131 90 -287 152 -501 199 -99 21 -145
25 -330 28 -118 2 -231 1 -250 -1z"/>
</g>
</svg>
