<?xml version="1.0" standalone="no"?>
<!DOCTYPE svg PUBLIC "-//W3C//DTD SVG 20010904//EN"
 "http://www.w3.org/TR/2001/REC-SVG-20010904/DTD/svg10.dtd">
<svg version="1.0" xmlns="http://www.w3.org/2000/svg"
 width="1280.000000pt" height="657.000000pt" viewBox="0 0 1280.000000 657.000000"
 preserveAspectRatio="xMidYMid meet">

<g transform="translate(0.000000,657.000000) scale(0.100000,-0.100000)"
fill="#000000" stroke="none">
<path d="M4350 6550 c-216 -24 -490 -95 -625 -162 -205 -103 -352 -274 -390
-453 -19 -88 -19 -125 0 -220 39 -205 178 -345 402 -407 64 -17 107 -21 233
-22 178 0 260 17 385 82 89 46 200 155 238 234 82 170 76 352 -15 462 -65 79
-220 154 -362 174 l-51 7 -3 52 -3 52 46 6 c25 4 88 6 139 3 80 -3 102 -8 160
-37 179 -88 286 -291 286 -540 0 -120 -19 -216 -55 -277 -34 -58 -142 -155
-226 -205 -152 -88 -288 -138 -450 -164 -181 -28 -442 -86 -503 -111 -132 -54
-268 -170 -321 -275 -31 -60 -55 -158 -55 -224 0 -72 35 -189 78 -260 79 -130
192 -222 342 -278 265 -99 529 -88 729 30 84 50 201 160 261 245 l48 68 25
-39 c76 -115 215 -233 348 -295 124 -59 184 -71 354 -70 174 1 256 18 394 84
67 33 101 57 166 123 69 68 90 98 128 177 66 138 89 244 91 415 0 77 -3 146
-7 153 -5 8 -35 12 -86 12 l-79 0 -6 -77 c-15 -177 -25 -199 -87 -209 -28 -5
-41 -1 -64 18 l-29 25 -7 444 c-6 399 -9 453 -27 537 -45 197 -115 368 -212
516 -140 214 -342 332 -671 392 -102 18 -402 26 -519 14z m179 -1524 c45 -24
51 -51 51 -247 0 -141 -3 -186 -15 -209 -30 -59 -98 -68 -146 -21 l-29 29 0
202 0 202 29 29 c33 32 67 37 110 15z"/>
<path d="M7929 6534 c-222 -40 -439 -172 -526 -321 -14 -24 -28 -43 -31 -43
-4 1 -23 26 -42 57 -72 114 -204 207 -345 243 -73 19 -111 20 -547 20 l-468 0
0 -74 0 -75 69 -36 c77 -41 153 -109 180 -164 40 -78 41 -112 41 -1111 l0
-969 35 -35 c24 -25 47 -36 77 -41 24 -3 250 -5 503 -3 511 3 493 1 535 71 19
31 20 58 20 945 l0 914 29 29 c48 48 128 31 150 -32 8 -23 11 -301 11 -940 l0
-908 34 -34 c18 -19 48 -37 66 -41 18 -3 239 -6 492 -6 496 0 498 0 548 55
l25 27 5 930 5 930 28 24 c49 42 125 22 146 -37 8 -23 11 -299 11 -931 0 -981
-3 -934 57 -974 26 -18 56 -19 501 -22 299 -2 486 1 510 7 21 6 51 25 67 41
l30 31 3 960 c3 1073 5 1039 -67 1185 -69 139 -201 248 -364 299 -292 93 -658
25 -853 -157 -33 -32 -72 -78 -85 -103 -13 -25 -26 -45 -29 -45 -3 0 -18 23
-34 51 -60 108 -198 214 -336 258 -134 42 -303 52 -451 25z"/>
<path d="M1717 6494 c-4 -4 -7 -31 -7 -60 0 -44 4 -54 25 -68 35 -23 95 -154
158 -351 30 -93 136 -417 236 -720 269 -822 263 -803 256 -825 -13 -40 -93
-64 -128 -37 -10 7 -89 228 -196 547 -256 765 -366 1089 -385 1134 -65 156
-224 280 -436 339 -71 20 -103 21 -652 24 l-578 4 0 -71 c0 -68 1 -71 28 -81
107 -40 174 -100 229 -205 17 -33 63 -147 103 -254 39 -107 117 -316 172 -465
55 -148 170 -457 254 -685 85 -228 168 -443 185 -477 40 -80 120 -156 181
-171 23 -6 70 -16 103 -22 207 -39 448 -162 538 -273 84 -103 111 -196 105
-367 -3 -119 -6 -131 -36 -193 -19 -39 -50 -81 -75 -103 -84 -73 -259 -134
-387 -134 l-50 0 0 70 0 70 46 0 c60 0 163 31 238 73 48 26 65 43 89 86 79
141 20 383 -119 490 -102 78 -242 111 -468 111 -189 0 -248 -10 -356 -62 -142
-68 -248 -194 -280 -331 -15 -65 -12 -197 6 -258 37 -125 144 -249 266 -307
282 -133 611 -168 845 -88 139 47 231 104 342 210 132 127 166 187 376 661
318 718 609 1479 911 2384 99 295 105 340 53 387 -20 18 -48 19 -803 22 -430
1 -785 -1 -789 -4z"/>
<path d="M7045 3774 c-101 -8 -273 -36 -375 -60 -330 -79 -551 -224 -652 -426
-49 -100 -53 -117 -52 -248 1 -102 5 -136 22 -184 62 -169 194 -279 397 -332
98 -26 341 -26 440 0 286 74 458 278 459 541 1 79 -3 98 -27 146 -33 69 -105
137 -185 178 -66 33 -198 71 -249 71 -33 0 -33 0 -33 49 0 28 4 52 9 56 6 3
40 9 78 14 204 26 385 -72 477 -258 54 -109 70 -180 69 -321 0 -193 -32 -282
-135 -375 -97 -87 -211 -153 -361 -209 -98 -36 -109 -39 -367 -87 -91 -16
-209 -41 -263 -54 -231 -57 -402 -202 -458 -387 -30 -97 -23 -234 15 -328 100
-245 363 -404 694 -417 76 -4 146 -1 185 7 188 36 368 156 484 323 l55 78 36
-52 c81 -121 220 -234 362 -296 117 -50 212 -66 360 -60 314 13 538 142 654
377 65 133 87 225 93 396 3 78 3 154 -1 168 -6 25 -8 26 -91 26 l-85 0 -1 -52
c0 -29 -3 -84 -8 -122 -6 -58 -12 -73 -35 -92 -33 -29 -75 -31 -107 -5 l-24
19 -6 434 c-5 418 -7 437 -31 548 -86 382 -250 646 -484 780 -95 54 -265 112
-394 134 -93 16 -367 28 -465 20z m143 -1549 c21 -25 22 -33 22 -229 l0 -203
-26 -27 c-35 -35 -92 -36 -131 -2 l-28 24 -3 193 c-4 209 2 239 47 264 36 21
91 12 119 -20z"/>
<path d="M10550 3750 c-47 -10 -107 -26 -135 -35 -162 -56 -309 -169 -382
-293 l-25 -42 -38 57 c-74 113 -186 199 -319 245 -65 23 -71 23 -556 23 l-490
0 -3 -71 -3 -71 68 -33 c81 -40 165 -120 196 -187 l22 -48 5 -1007 5 -1006 25
-27 c50 -55 51 -55 562 -55 521 0 515 -1 562 63 21 28 21 36 23 945 2 650 6
923 14 938 26 50 97 57 140 15 l29 -29 0 -915 0 -914 23 -34 c47 -71 35 -70
579 -67 474 3 487 4 515 24 15 11 36 36 45 55 17 32 18 97 18 946 l0 911 31
26 c41 35 83 34 120 -3 l29 -29 0 -915 0 -914 23 -34 c47 -71 35 -70 579 -67
474 3 487 4 515 24 15 11 36 36 45 55 17 32 18 98 18 955 0 1043 1 1034 -71
1183 -77 158 -225 271 -421 320 -350 89 -769 -47 -893 -289 l-23 -45 -23 50
c-13 28 -55 82 -94 121 -54 56 -89 81 -157 113 -161 78 -373 101 -558 61z"/>
<path d="M4350 3662 c0 -50 4 -62 26 -83 42 -38 85 -141 184 -444 50 -154 107
-325 125 -380 25 -76 203 -622 335 -1028 8 -25 6 -33 -19 -58 -35 -34 -89 -40
-113 -11 -8 9 -59 148 -113 307 -53 160 -176 524 -272 810 -96 286 -189 549
-206 585 -64 130 -212 248 -377 298 -130 39 -211 43 -755 40 l-520 -3 -3 -68
c-2 -57 0 -68 15 -73 69 -24 128 -59 166 -99 77 -80 75 -74 367 -865 38 -102
103 -277 145 -390 42 -113 107 -288 145 -390 137 -370 141 -379 197 -441 48
-53 97 -77 191 -94 299 -54 542 -195 625 -362 41 -83 52 -140 51 -268 -1 -99
-5 -130 -24 -180 -32 -85 -121 -171 -213 -208 -83 -33 -191 -57 -258 -57 l-49
0 0 70 0 70 43 0 c96 0 250 62 301 122 43 49 59 105 58 199 -1 121 -64 262
-145 324 -101 76 -263 116 -472 116 -188 0 -253 -12 -360 -65 -178 -89 -276
-227 -292 -410 -12 -147 46 -297 153 -395 122 -112 393 -206 629 -218 281 -14
505 69 695 257 47 47 103 112 125 145 112 171 507 1093 773 1805 201 539 472
1335 472 1388 0 48 -24 88 -61 101 -22 8 -264 11 -800 11 l-769 0 0 -58z"/>
</g>
</svg>
